<mxfile host="Electron" modified="2024-04-26T02:09:47.504Z" agent="Mozilla/5.0 (Windows NT 10.0; Win64; x64) AppleWebKit/537.36 (KHTML, like Gecko) draw.io/21.6.8 Chrome/114.0.5735.289 Electron/25.5.0 Safari/537.36" etag="0RfoZ4H7X_VByGo1wpkE" version="21.6.8" type="device">
  <diagram id="C5RBs43oDa-KdzZeNtuy" name="Page-1">
    <mxGraphModel dx="1032" dy="583" grid="1" gridSize="10" guides="1" tooltips="1" connect="1" arrows="1" fold="1" page="1" pageScale="1" pageWidth="827" pageHeight="1169" background="none" math="0" shadow="0">
      <root>
        <mxCell id="WIyWlLk6GJQsqaUBKTNV-0" />
        <mxCell id="WIyWlLk6GJQsqaUBKTNV-1" parent="WIyWlLk6GJQsqaUBKTNV-0" />
        <mxCell id="xW0SYJLAr49xiK4sMMPl-44" style="edgeStyle=orthogonalEdgeStyle;rounded=0;orthogonalLoop=1;jettySize=auto;html=1;exitX=0.5;exitY=1;exitDx=0;exitDy=0;entryX=0.5;entryY=1;entryDx=0;entryDy=0;entryPerimeter=0;" edge="1" parent="WIyWlLk6GJQsqaUBKTNV-1" source="xW0SYJLAr49xiK4sMMPl-42" target="xW0SYJLAr49xiK4sMMPl-33">
          <mxGeometry relative="1" as="geometry" />
        </mxCell>
        <mxCell id="xW0SYJLAr49xiK4sMMPl-42" value="" style="rounded=0;whiteSpace=wrap;html=1;" vertex="1" parent="WIyWlLk6GJQsqaUBKTNV-1">
          <mxGeometry x="321.38" y="450" width="179.99" height="30" as="geometry" />
        </mxCell>
        <mxCell id="xW0SYJLAr49xiK4sMMPl-40" style="edgeStyle=orthogonalEdgeStyle;rounded=0;orthogonalLoop=1;jettySize=auto;html=1;exitX=0.5;exitY=1;exitDx=0;exitDy=0;entryX=0.499;entryY=-0.093;entryDx=0;entryDy=0;entryPerimeter=0;" edge="1" parent="WIyWlLk6GJQsqaUBKTNV-1" source="xW0SYJLAr49xiK4sMMPl-38" target="xW0SYJLAr49xiK4sMMPl-36">
          <mxGeometry relative="1" as="geometry" />
        </mxCell>
        <mxCell id="xW0SYJLAr49xiK4sMMPl-38" value="" style="rounded=0;whiteSpace=wrap;html=1;" vertex="1" parent="WIyWlLk6GJQsqaUBKTNV-1">
          <mxGeometry x="295" y="340" width="230" height="33.5" as="geometry" />
        </mxCell>
        <mxCell id="xW0SYJLAr49xiK4sMMPl-4" style="edgeStyle=orthogonalEdgeStyle;rounded=0;orthogonalLoop=1;jettySize=auto;html=1;exitX=0.5;exitY=1;exitDx=0;exitDy=0;entryX=0.5;entryY=0;entryDx=0;entryDy=0;" edge="1" parent="WIyWlLk6GJQsqaUBKTNV-1" source="xW0SYJLAr49xiK4sMMPl-0" target="xW0SYJLAr49xiK4sMMPl-2">
          <mxGeometry relative="1" as="geometry" />
        </mxCell>
        <mxCell id="xW0SYJLAr49xiK4sMMPl-0" value="" style="shape=parallelogram;perimeter=parallelogramPerimeter;whiteSpace=wrap;html=1;fixedSize=1;" vertex="1" parent="WIyWlLk6GJQsqaUBKTNV-1">
          <mxGeometry x="100.01" y="60" width="170" height="30" as="geometry" />
        </mxCell>
        <mxCell id="xW0SYJLAr49xiK4sMMPl-1" value="" style="shape=image;verticalLabelPosition=bottom;labelBackgroundColor=default;verticalAlign=top;aspect=fixed;imageAspect=0;image=data:image/png,iVBORw0KGgoAAAANSUhEUgAAANAAAAAjCAYAAADlooTDAAAAAXNSR0IArs4c6QAAAARnQU1BAACxjwv8YQUAAAAJcEhZcwAADsMAAA7DAcdvqGQAAAZ8SURBVHhe7ZxNMmRLGIaPuwFBL4GhgQHmTJgasQWWUDtgLAQrYAEIEYZMhAkLIEzMWINbT3a9fPJm5vnrbnWrvyci49TJ3ze/nzynRHVPvQ+pHMfpxD+jq+M4HfAEcpweeAI5Tg88gRynB55AjtMDTyDH6UExgTY2NqqpqalQZmdnR7WO44hiAl1eXlaDwSB8XllZCVfHcT6pfYWbnp4O17W1tXD927i4uAhPYJ7Gznjy9vb28ab0p6lNoOfn53BdWFgI17+Ns7OzcN3c3AxXZ/y4uroK162trXD9k9T+lGd+fr56fHysXl9fqx8/foxqHceB4hOIRyPJMzc358njOAmKCXR7exuuS0tL4QoPDw/hL3J659ze3h61fOXm5ia0qS/X/f39UetPuFf77u7uqPYTnn5a5/j4eFTbDw4F1rJzo4HvOGgW9i+QqT0yh9pThTlTNLFLF9hXyp65+hwlfU9PT1/stry8/MVmwFjacvWUlD0tJR+hQaDLtsfQV+25koorxsXrc4+u/8ArXI69vT1e78LVovphYr0PX+1GtZ/s7Ox8jKOdMnyKhbr7+/vQ5+TkJPQD5qHt/Pw83AvGUW/H9YW1ZmZm3q+vr8M9a0gvmizSFe8faKNYXcylMZrf0sQuXRm+/78fHR2Fz9LA/Ovr6x9a+Ex9vE/RRB913FNK/hoMBqPaT6hnvhJakyLdw7egrF1Zh3r2FoM+2mL/sf/cGLVhT9YFPlMn+1qKCSSDW9FMSgBibDYbkwvG1FwCYbTljJ7aaBdYO7WOHC+DiZxm9c8lTypAu9ilK+jAR8xtNRJIrJU6ENroywUUY5VwaLDIZinbWGinX6wR38Q6oLQn/IxWi+ZHXxy/asMWltIaxQRiEEUL4Qwck5oIFKBxwDMewzI2Fg25caxHfZ3Rm6J10JLSEYNe+jehlDxd7dIV1kppUeDHT462+hRocXBiA5JKtrAHEmOa7FNzs258oKXQnthDHXoipZKHe/SlNJbWyEaHgleLYRgmTwWIiBfiyjg5oTSWcRQLJwHr/0rkXDSVjK79x0GVQqd3fHKJPnZpC3NrfzHU0RYHZlt9xAP9KQo2PSG46rXKjsOOOfvEyEcUxkhXCvTRrw4d/hQ+x7Bf5tHDgT7oRzf1qbcjyK6sCeMSZ6cl7oshcA5zlcaBhMq5ckjJeF1AhwKGwueUNoxHe85woi55QGuptLFLW3KvG7JnKrGsNkoTfbKhkoS+jAMlMX1Aa6cCNwVrol/JQSE+4vGaV+vmqEseUPypYCfq0KGYTJFNIBkIw4AWiE8jIaPRrws6tZQwBGTXuZrAOhg+p1mJEb/uWJRkJZ197dIW1rF2FPiR+jjRu+rT3pUk2NLGhoIfCMK6IM/BnHpyMqdNaGkoHXL0l59jm1hol942ZEdItDJWYnMnbd9A0fwYm7kwVinzfwUY1zraov3nNEgvzsmd0tDXLm3J7UcHYtPvP3WwZ8ZRiBGu1g72AMKW2KsP8odNAq2Rm9smT9369KG0JTlCj0Y7oQyGg1KUHqeMxUGlhJATcDTGil9BhPpZbU1g3pQRZeAY6nJ7lYZU8sTB0sUuCvacDXJYXTHaZ7xWH79JJ2P5bMEGtDEeO8Z2ykH/eC5QstgEoi917DuF9MV+5x4/WZSgKZ2snXsTSUah/lqBQIsEsQlE024X1Ib02kcbYjFgk2BgLCXlTIv6tQENGEnGRptea1KvANTLyOxBTmU8c1Gs45hPTo4Drq1dqKN/2wQq7UcBgjb8h43lu65+ow/jKHGAMYfasEtTrBbpQ6/8pzpQX+2Je7XLF/Hamiuul82p1xzsSYeDXdeSjEJ9H4mNR8DIEUxqAwhYBAEIpI+Exv1yIJYxuRMPaNPcTUEXe5LBVVhPQRMjG2gPMqD2nytKOktbu9BGv5y2HBpHYMfYYKeftXFXvzFO/VPI3k39D+hknLRQsGmsGZTk9LHxaPeaKykbEe/Wv8yZe/KIdsf4b0RPvdTGLOqXOmUnhSYHiTMejEUCcXLo1KuD08m+fkwavGI0OUic8aD23wP9LviBHj/OOz09rVZXV8O/eD08PBy1ptEPFPmXspP66/CDg4NqmDy1P7h0xoNv+a99+UX34uLi6O7nr70nOSmcyeVbnkAvLy/hOvzCVg2/uFV3d3eePM7/Ev/P5R2nB9/2HchxJgFPIMfpgSeQ4/TAE8hxeuAJ5Didqap/AZjXQuLtk28VAAAAAElFTkSuQmCC;" vertex="1" parent="WIyWlLk6GJQsqaUBKTNV-1">
          <mxGeometry x="118.14999999999999" y="63.75" width="133.71" height="22.5" as="geometry" />
        </mxCell>
        <mxCell id="xW0SYJLAr49xiK4sMMPl-10" style="edgeStyle=orthogonalEdgeStyle;rounded=0;orthogonalLoop=1;jettySize=auto;html=1;exitX=0;exitY=0.5;exitDx=0;exitDy=0;entryX=0.25;entryY=0;entryDx=0;entryDy=0;" edge="1" parent="WIyWlLk6GJQsqaUBKTNV-1" source="xW0SYJLAr49xiK4sMMPl-2" target="xW0SYJLAr49xiK4sMMPl-8">
          <mxGeometry relative="1" as="geometry" />
        </mxCell>
        <mxCell id="xW0SYJLAr49xiK4sMMPl-17" style="edgeStyle=orthogonalEdgeStyle;rounded=0;orthogonalLoop=1;jettySize=auto;html=1;exitX=1;exitY=0.5;exitDx=0;exitDy=0;entryX=0.5;entryY=0;entryDx=0;entryDy=0;" edge="1" parent="WIyWlLk6GJQsqaUBKTNV-1" source="xW0SYJLAr49xiK4sMMPl-2" target="xW0SYJLAr49xiK4sMMPl-15">
          <mxGeometry relative="1" as="geometry" />
        </mxCell>
        <mxCell id="xW0SYJLAr49xiK4sMMPl-2" value="" style="rhombus;whiteSpace=wrap;html=1;" vertex="1" parent="WIyWlLk6GJQsqaUBKTNV-1">
          <mxGeometry x="90" y="120" width="190" height="70" as="geometry" />
        </mxCell>
        <mxCell id="xW0SYJLAr49xiK4sMMPl-3" value="" style="shape=image;verticalLabelPosition=bottom;labelBackgroundColor=default;verticalAlign=top;aspect=fixed;imageAspect=0;image=data:image/png,iVBORw0KGgoAAAANSUhEUgAAALUAAAAfCAYAAACh1IwhAAAAAXNSR0IArs4c6QAAAARnQU1BAACxjwv8YQUAAAAJcEhZcwAADsMAAA7DAcdvqGQAAAVoSURBVHhe7Zo9Mi5NFMfHuwPkAiQCJUEopWzARyxhCQRiFuBjBWyAUlIWwAIIBCJUsQHv82vz59xzu+eZUfd6bnX1r6qrZ/rznNP/7hnjGXrvURUKGfFfnRcK2VBEXciOIupCdhRRF7KjiLqQHUXUhez4q6Le2dmphoaGqv39/bqkkCtzc3Nhra+vr+uSwfFXv1NPTk5Wd3d31c3NTTUzM1OXFnLj/v6+mpiYqIaHh6uXl5e6dHCUf74UsqO8Uxeyo5Oob29vq9XV1WpkZCS8P5F4xaCMR5BQHen4+Lgu/WJra+uXNj4xfozT09NqaWnpsx1zn5+f17WDB/uwCdt4x3x+fv6tHPttrDzUER+1J3Gvsaz/xImxLcSbOv93jMpJ2NZkA9Bf78lKzG3jzfuzrUcfHutHLKEdD776+Zk7Nn4UXj/a0Hs3fu+9M73Pzs6Ga5VxzzAqg6enp1BGurq6qku/oA+p965dl3z00Vi+j+qY/+TkJJTRl7aUtWVxcfHTri6Jfv3Y29t7397eDraS0w8/Njc334+Ojj7bUE5ZDHyjfmVl5TOeXFOmMUBxYh6P6sg98t+uVQzNqVjjEzZThg+Ws7OzUE7ySAeMx7Vg7Vg3ki0H1WG/dIDvGqcNrUWtBcEJC/e9PxLquy/6OZoStAIpVIejtg+k5hg0EjUisv6wSCr3SNBe8Iq7FVNqkREr5awHuRcMcUxtKKExYjYyrhd1k0/ShrXDCtqvpxW07dM0R4zOom6zWzCuixEpQUNsUaHrHD8JNmGbF5DE6E9YFlAL7YWoU1OnFkh4tLcwLu21qWw81ceOE0Pt2rQF+eTXJwZjy08vaFDc/Lxd5oDWopZBDM7k3KfoYoQea6kTREFgsUk4zKJRxikQC86gwR+Sj5F89ZvXxwufaKNF9psAdBDYJyfxoJ9eCWxMGZv6NmhTkLAhdtiI2KaLwdo1HV7+kCJ2+KGYUe43fIpOz24mlmGklGhliA14DLWzwbcQKM2lhHO0bwr0IJHNWhwLoqLOi5221kfaUUZ8U4eHNoJiJ1Fo4blm4wvGpE9biK/slU2x9VSbJsH1EzTgq+YiYTsxYIP12zCeb72QYhiTMnlM2G0cZQzaxBZfyNHU5umKF0/b1GSjJ2WzREdsPJqnC4idPhIui28PB3uCaqO1Peks9LVxswKTDQi2CR1eTeuoOboKOMa3RA0KlF9wORpbPCFBE4ymQP9pUf8EqcexTtbYqwTlpK7o9OME9SepYiyxW8F/h5gwNUfT2OrXb/4/KepW36n5Huq/a05NTdVXv/L4+BjyXsBD7uFb49raWqi/uLioRkdH65qPb5r2u+vY2FjIX19fQ25hHL5d/mtcXl6G3Mfn4eEh5NPT0yG39AQZcn2LtvCNOvUtfmNjI+S7u7vh39PLy8vhHubn50OOPcR0fX093PeD78Ox/xMsLCzUV1/Ip9RPIPg2fnh4WPUEXR0cHNSlH9/i+fZsNTU+Ph7yt7e3kFuwn98RtaYWdxI9NjmB9H5Hrh3o37N0glPPKczO1u5mLB6XJK4F7TSe5gDK1V47mHrGo6zfO/tPo1jFHsfyj9MNHziZ5BP+2JgBvjEOcU89zRiHfqTYE0AnedNT02Nt0VqQayy7bmorn7BVPqWexhrL2yTdUKd5mYsxKbPz9qOVqHFQTikxWUxUOKBHCYZL0MC9HcOnWPDlmG3DAqYWepA0PY7xg41IvRW0IE42Pqn4erQusUWX6Lr8gYhdzG1twW7KvM3MqXbYIXsRpfqmUixG2shqw3UX20X5QVMhO8oPmgrZUURdyI4i6kJ2FFEXsqOIupAdRdSF7CiiLmRHEXUhM6rqf6tddJwXhCUOAAAAAElFTkSuQmCC;" vertex="1" parent="WIyWlLk6GJQsqaUBKTNV-1">
          <mxGeometry x="120.77999999999997" y="144" width="128.45" height="22" as="geometry" />
        </mxCell>
        <mxCell id="xW0SYJLAr49xiK4sMMPl-5" value="" style="shape=parallelogram;perimeter=parallelogramPerimeter;whiteSpace=wrap;html=1;fixedSize=1;" vertex="1" parent="WIyWlLk6GJQsqaUBKTNV-1">
          <mxGeometry x="238.62" y="570" width="100" height="30" as="geometry" />
        </mxCell>
        <mxCell id="xW0SYJLAr49xiK4sMMPl-6" value="" style="shape=image;verticalLabelPosition=bottom;labelBackgroundColor=default;verticalAlign=top;aspect=fixed;imageAspect=0;image=data:image/png,iVBORw0KGgoAAAANSUhEUgAAAGQAAAAeCAYAAADaW7vzAAAAAXNSR0IArs4c6QAAAARnQU1BAACxjwv8YQUAAAAJcEhZcwAADsMAAA7DAcdvqGQAAAQFSURBVGhD7Zq/Ly1BFMf3vl6BVjQ0KolfhWiFQk/hH6BUkPAHCKVEQqKn1BC0IhGJhE6Bv4AI/8B9+znZ73WM3bt7L+9lk7ufZHLs7MyZc+bMnJm979XqMVFFafiTyIqSUAWkZHRcQGq1WqMsLCwkteWh4wLCkTk2NmZ/j4yMmCwTHZmyent7TU5OTposEx0ZkMfHR5NDQ0Mmy0THBeT5+Tl6enqytKWdUiY6LiAPDw8mx8fHTZaN3ICwopaXlxs3k6Ojo2/1PT090f7+vtVnQb/Z2dmGnsHBwej09DR5+/X2g27P/f291dPf4/Vtb28ntc25uroyOTw8bBKwTXooWb7k+YCdes+c8Ozx4/A+Fb7Us3h5eanHW7t+eXlpf9N8Zmamfnd3ZzLe+lbf3d1t73gOkQ7aHB4eWh39aU+dUB2F8Tz009gedA8MDKT2yQIdae1Vv7S0lNR8UtQH2lB/cnJi73gOWV9ft3fz8/NJzVeaBsSjgDAIxvMsspz0jmCoh/YUD23T9GA89Ux+iOwpStq4msC9vb2k5pNWfRC0552fJ9ja2rL6rAVUOCAokAHhTsgbHOnR6gonUoHVKgTGok5jePQuy7kQ+cAEC8ZCN0FJo1UfRNYiZXGlLSxROCAyLNzSmpS0QXCUQqAoGMeWpY724YrTdvbOMx7OyUGP3hWFHYAOxsFu2RLa4WnVB5EWSM1VVvChcECyIq78HgZKq9EXdNDO7wBP6ITfAUpbmgCt0GaTGSIdvvjdEtKOD0J9/bwUWUCFAyKDQuRkaGDaCslDwWUFAsajH6RPC4KJbEU3sKrRQRBZ7Xom8Gm044NAP30VAL+4mlHoO0TXt1i5Sc/FxYXJ6elpkz+hr6/P5O3trV0nb25uot3dXasTHx8fjSvu6uqqySJwlX57e4viINiVl49C/bjIOL8N+uOUFp2fn9sznwjxQoumpqbsOYtCAbm+vjY5OjpqUry+vpqTDBx+9fb395t8f3836dF9PaSrq8skehcXF6PNzc1vvzvt7OxEa2tr0cHBgT0XRZM+MTFhEubm5kweHx+bDGnHB0+8i01ubGzY+CsrK/bclGSnNEVpKTyMtA11oHNoKsUoJVC0TWnP9qcu62BDHyXMtT6fp11P8yAN0jdMP7IRe7FJ9kO7PgilPEpeW1EoIEw4StNyLQcV7zAQA3BCkKsVTAp6mBjfJkS6wrEUfD9hrcCZQ/8wh3NuadLxJbStHR8EQaCPzsQiVP+m/g/R72VnZ2eFf8jsuB8X/xcc4vGutrOuaDAM2ycVP4Z0TWoitSrF5V1x06gC8kv4c4aS9+GYRZWyfgnSE8SBieKLQNv/gaI61EtGtUNKRhWQklEFpGRUASkVUfQXOwexdslJjKgAAAAASUVORK5CYII=;" vertex="1" parent="WIyWlLk6GJQsqaUBKTNV-1">
          <mxGeometry x="256.96000000000004" y="575.5" width="63.33" height="19" as="geometry" />
        </mxCell>
        <mxCell id="xW0SYJLAr49xiK4sMMPl-47" style="edgeStyle=orthogonalEdgeStyle;rounded=0;orthogonalLoop=1;jettySize=auto;html=1;exitX=0.5;exitY=1;exitDx=0;exitDy=0;entryX=0.25;entryY=0;entryDx=0;entryDy=0;" edge="1" parent="WIyWlLk6GJQsqaUBKTNV-1" source="xW0SYJLAr49xiK4sMMPl-8" target="xW0SYJLAr49xiK4sMMPl-5">
          <mxGeometry relative="1" as="geometry">
            <mxPoint x="85.19047619047615" y="450" as="targetPoint" />
            <Array as="points">
              <mxPoint x="85" y="550" />
              <mxPoint x="264" y="550" />
            </Array>
          </mxGeometry>
        </mxCell>
        <mxCell id="xW0SYJLAr49xiK4sMMPl-8" value="" style="rounded=0;whiteSpace=wrap;html=1;" vertex="1" parent="WIyWlLk6GJQsqaUBKTNV-1">
          <mxGeometry x="20" y="230" width="130" height="30" as="geometry" />
        </mxCell>
        <mxCell id="xW0SYJLAr49xiK4sMMPl-9" value="" style="shape=image;verticalLabelPosition=bottom;labelBackgroundColor=default;verticalAlign=top;aspect=fixed;imageAspect=0;image=data:image/png,iVBORw0KGgoAAAANSUhEUgAAAKsAAAAhCAYAAACmw1unAAAAAXNSR0IArs4c6QAAAARnQU1BAACxjwv8YQUAAAAJcEhZcwAADsMAAA7DAcdvqGQAAAYHSURBVHhe7Zu7Sh5bFMfH8wJi0otomhAk4K0QKyGXIn0EHyDE0kJBe0EL7dQ8QVKmiblBAjEBSZWgoIWmSK2IvoBnfsvvr+vszDgzxpj5zrd/sFnf7NmXtdda+zIz2naSkkQiTcA/DRmJ1J4YrJGmIQZrpGmIwRppGlomWD9//py0tbWdpWfPnjXuRLxdxsbGGrn1o2WCdWRkJNnf329cJcmdO3cavyK8EBoYGLDffX19JutISx0Dbt682fh1GryRc2Sb4eFhk3WkpYL1x48fJrWKRM7Z3d01efv2bZN1pKWC9evXrybv379vMnIKk3hvb88msd996kZLBevm5qbJ3t5ek5FTdnZ2TA4ODpqsKxcGKzNuYmLi7EnxxYsXv+TfuHGj8Mmaeg8fPjxr59atW8na2prd80/p5IfQNvcWFhYaOaeoDok2yvDu3TuTfqvz4yN9//69ceecg4MD6x9nqhzj8WX5rTFik7AdbKC63K8TX758MXn37l2T4PUl5fn4It8CtsuKIUEs6R4py/5n8LcBWaRPzifptnCyvr5uvyn64MGDk2/fvplMtw3L7+josHtch6gNyjx//tzyqE958sTq6qrlZanz9OlTy5+fn2/knOLboZ8y5PWhfOnooR/6kC1A+j5+/NiugfuUffXqld3jOmRmZuaXeheBnaVblUS9KqgfjU8oHx+ElPUtdbmvGCKF/pLNfL0scoPVo45QjgH4zvIG6gfDIDxSWviBhFCf/NBgqhMGcR7oR/nQkQQQfYT6gw9UP+a8toR09nUAXcnP6utvgk4kjwKIiRlSxbceJin3aNsjexb5slSwqjFSuIIWOSZvRQwdndU+M1Lth+V1L+w3D+lDcAomAEYPDS7yJqJW1jzj5tXDWT09PY2reiDfYgch24ZBJar6VuTVkz2zdmdPqWBVJ+HqRuPkZzmAwSqYSBhFqxjlwwDBWLTlHUw59R0aQPfK4mc1fdNeuGJ6QsMzVupiA+Xn1c1yimyVFwB/CwUKvkFH+ShvAkNV3wpNjCxf+kUkj1LBSuN04gMJmIHkh0EspXyiDcpRJ4uwD79yyjgCAzPAvGDJgvqhThcZSAGnRH10pE5ohxCN39uF36GT6oAmsU9+lQ25jG89lMd3wvu5iFLBKqVCNNBQyayVpQgGSx1WHgWozksKZGD2c68oYDxaJakHMrg3Wkg4eaqA/tRVcGpVrdqWdKia1G8ZsAl1sJHszjU6Z3EZ33q0gwp8ULatwvesepWQGsCkR6+C7t27Z/J36OrqMrm1tZUsLi4mQ0NDyZMnTyxP6DVIGtiVPpdub2+b1McA6qZGshfh+qp1lfBinfbfvn1r1+icrsiVP/G+efMGr1ZO1CsDYz88PEzSALXXVuitP2TRB5SrRu9yed3I60D6npqasrwiCoN1Y2PDZH9/v0lB4DBQnBJ+9ejs7DR5dHRk0qP3kSHt7e0mP3z4kMzNzSXpbLNrGB0dNTk+Pm6fBScnJ+26LJ8+fTLp/0gj3RVMvn//3mRId3e3yePjY5Me3hXOzs42rrJJVxCTlMPxVXW+DhSQLAzi0aNHJl++fGky5DK+9ehd7uvXr5Pp6elkaWnJrkuRzsQL8Q8mHm1t2krZsikL2k5I2vooz3JPXtZDhrZmUrgtcK17Fx3888h6eNPRQFsmffh+pQ91tSVShzGSV6SH17luD1WC8zf6hfaW7/AjusuvcBnferyfyzxUeQqDlWCkYTnMo3MmSqIsAxFyrBSjHZTzZTw+OEI4E3NPZ9gq0J90CJGz0C10GGB4BTqJ32V1oC51qjrkOtHY/CQGPfSQ8HHos6q+9cgfWX4uIv536x9CZzPOj3X+45DrhmPRyspK8vHjx/983i2FhWzkSmE1YlUqOiq0Gtohw7dHZYnBegVwhGAb5Kik7THcWlsRbMB2z9aPjbBL1nGrLDFYrwB/fvudleP/Bud7bxd2nN+hpf6e9U+Rrqgm06BN0q2/1v90d538/PnTZLq6JukDZ7K8vGzXlyU+YEWahriyRpqGGKyRpiEGa6RpiMEaaRpisEaahCT5F/viV1UDrefkAAAAAElFTkSuQmCC;" vertex="1" parent="WIyWlLk6GJQsqaUBKTNV-1">
          <mxGeometry x="25.41" y="233.5" width="119.18" height="23" as="geometry" />
        </mxCell>
        <mxCell id="xW0SYJLAr49xiK4sMMPl-11" value="Да" style="text;html=1;align=center;verticalAlign=middle;resizable=0;points=[];autosize=1;strokeColor=none;fillColor=none;" vertex="1" parent="WIyWlLk6GJQsqaUBKTNV-1">
          <mxGeometry x="53" y="125" width="40" height="30" as="geometry" />
        </mxCell>
        <mxCell id="xW0SYJLAr49xiK4sMMPl-12" value="Нет" style="text;html=1;align=center;verticalAlign=middle;resizable=0;points=[];autosize=1;strokeColor=none;fillColor=none;" vertex="1" parent="WIyWlLk6GJQsqaUBKTNV-1">
          <mxGeometry x="270.01" y="125" width="40" height="30" as="geometry" />
        </mxCell>
        <mxCell id="xW0SYJLAr49xiK4sMMPl-24" style="edgeStyle=orthogonalEdgeStyle;rounded=0;orthogonalLoop=1;jettySize=auto;html=1;exitX=0;exitY=0.5;exitDx=0;exitDy=0;entryX=0.433;entryY=-0.008;entryDx=0;entryDy=0;entryPerimeter=0;" edge="1" parent="WIyWlLk6GJQsqaUBKTNV-1" source="xW0SYJLAr49xiK4sMMPl-15" target="xW0SYJLAr49xiK4sMMPl-22">
          <mxGeometry relative="1" as="geometry" />
        </mxCell>
        <mxCell id="xW0SYJLAr49xiK4sMMPl-29" style="edgeStyle=orthogonalEdgeStyle;rounded=0;orthogonalLoop=1;jettySize=auto;html=1;exitX=1;exitY=0.5;exitDx=0;exitDy=0;entryX=0.5;entryY=0;entryDx=0;entryDy=0;entryPerimeter=0;" edge="1" parent="WIyWlLk6GJQsqaUBKTNV-1" source="xW0SYJLAr49xiK4sMMPl-15" target="xW0SYJLAr49xiK4sMMPl-27">
          <mxGeometry relative="1" as="geometry" />
        </mxCell>
        <mxCell id="xW0SYJLAr49xiK4sMMPl-15" value="" style="rhombus;whiteSpace=wrap;html=1;" vertex="1" parent="WIyWlLk6GJQsqaUBKTNV-1">
          <mxGeometry x="200" y="190" width="210" height="70" as="geometry" />
        </mxCell>
        <mxCell id="xW0SYJLAr49xiK4sMMPl-14" value="" style="shape=image;verticalLabelPosition=bottom;labelBackgroundColor=default;verticalAlign=top;aspect=fixed;imageAspect=0;image=data:image/png,iVBORw0KGgoAAAANSUhEUgAAALEAAAAcCAYAAAAuq171AAAAAXNSR0IArs4c6QAAAARnQU1BAACxjwv8YQUAAAAJcEhZcwAADsMAAA7DAcdvqGQAAATvSURBVHhe7Zu7TSRBEIZnLwNigBDAwwcTLGJAIgJsHHwMMoAAgATAxCABiABimOPbmx+KUnXPY/fuNKv6pNbs9qO6uurvmhW6W7SfNEkyY351zySZLSniZPakiJPZkyJOZk+KOJk9f0XEe3t7zWKxaJ6enrqeZFN5eHhY5vrw8LDr+fesXcRvb2/N8/Nzs7W11ezv73e9yaZyd3e3fB4fHy+f/4ON/zsxb4Orq6vm7OwsL9WGsvG/iRHu0dFRc3Fx0ezs7DS3t7fNx8dHN5psBFTiPu7v79uDgwMq9lfb3d1tT09Puxlt+/j4+GP85eWlG/nD6+vrj/GoXV9fd7O/eX9/by8vL5f7aR6+ePtDYA0+f/7Uac/Pz5c+rYr8wya+KSal/hLE7+Tk5Gs+T9YLG/+bm5uu9xuts7Bea1g/BGJk/aBtb28v+2y8rD+MeTivxqOG/Yi+OET0ihgBYwynSAywEcY5nEVzaR6NeYdICP1RkAko+yBg9gSEzvwocEORwJQc2Z4C63X5dNGwz3lkVwmPxAdKOD6xloZv9Omy2j4fQ1sgPPgXrYnAjuItwfLUuayIQf2RbcZotthwBq2JYj4kDhG9IlYCMGihkvnqgmPMjQTJfC88CZiDeftWwHastscU8AFbBIvP3o8x4Cs+Y88GnaTgc5RsJc4LXHG3ySaGkR1dbJoXGmvwaci55CcFx8J34uOJfAT2or8k4Ogyj4mDZ7CIo1e9R8GMkuVRZY4EDCXnx+wxBvYhkCR86k8N/KL5RKgaenGwJ/2c1UI8EI0Xn0Tmi4fmMubjxdjQWMm+LzYltOcQagIeGwdPrwcSG43k1owpWT6QHlVZWvSaoM8eCkHhh24r/TU/VgHfCRz7jBGyEsFaT8mejxdPLqkS5xOuXNhkM4e5qtI29hobGiv8Y772qJ3f56iG8uYvnxgbB8+ga0TwdDievqIIJasWtD4BgyqCGnMJFomySVon2F2lEstnX/WwQ38kbntGGtWKhJLAKIb4yDwrHOyyp95QPIH1jOn7UMiJqibNn0cgLMaJVY0+AYP2UuuLg2fYu+ATjFlxeTEpWThQAhsKUE2MJKlvzrogGexHwvk8JGgRJZ8lLp/ESJB9+BiTD/zGZ9mT6BDXGNseVXFr0yJxlgoaSOg1P6bEwTNYxEJC9geTw6UbZwXM3BolQawLXUgEwI1fxz5KuEevSp/sqcljDQ1Bs6d8lz29rRgb+zbx1HwkdvIjQnog57XCMDUOlqKIea3gqEe/y7yIJe7S60vJ9ALmu9+ndsuZ3/cKK8GZsD31J0MJ7OJv9BbSxfV78b20hqST1Mg/XRbGialF9pgz9mdEJHr80F4e+lkTYePhBUyurQamxsFSFLFeg4hTjuj3UnRgiRgHGbMVTqL0VVoVI+rXwbQPe2OTPj6PAZ8IhgLoA7sqilV0uWzF4lw2sfjEmARHP/4RE18khNYwx5+DfpoXdx8SHesUb561YkK/ig8+a09s4RvN5glfZU97iClxsBRFjOM4piTQMIojkYjo01wSpYPjjNaXGnM8rMeO5vB5bHUBhMM5dKH+BkpOdA57fubZBCqxxJXxWnyFEh4Ji/jTvLj7YD/2tfGmEbdoH+DCWp+1p9VL1Bj3TImDJf+jaDJ78h/FJ7MnRZzMnhRxMntSxMnsSREnsydFnMycpvkNidPdLSIcJXQAAAAASUVORK5CYII=;" vertex="1" parent="WIyWlLk6GJQsqaUBKTNV-1">
          <mxGeometry x="238.62" y="214.5" width="132.75" height="21" as="geometry" />
        </mxCell>
        <mxCell id="xW0SYJLAr49xiK4sMMPl-18" value="Да" style="text;html=1;align=center;verticalAlign=middle;resizable=0;points=[];autosize=1;strokeColor=none;fillColor=none;" vertex="1" parent="WIyWlLk6GJQsqaUBKTNV-1">
          <mxGeometry x="164" y="196" width="40" height="30" as="geometry" />
        </mxCell>
        <mxCell id="xW0SYJLAr49xiK4sMMPl-19" value="Нет" style="text;html=1;align=center;verticalAlign=middle;resizable=0;points=[];autosize=1;strokeColor=none;fillColor=none;" vertex="1" parent="WIyWlLk6GJQsqaUBKTNV-1">
          <mxGeometry x="405" y="195" width="40" height="30" as="geometry" />
        </mxCell>
        <mxCell id="xW0SYJLAr49xiK4sMMPl-32" style="edgeStyle=orthogonalEdgeStyle;rounded=0;orthogonalLoop=1;jettySize=auto;html=1;exitX=0.5;exitY=1;exitDx=0;exitDy=0;entryX=0.5;entryY=0;entryDx=0;entryDy=0;" edge="1" parent="WIyWlLk6GJQsqaUBKTNV-1" source="xW0SYJLAr49xiK4sMMPl-20" target="xW0SYJLAr49xiK4sMMPl-30">
          <mxGeometry relative="1" as="geometry" />
        </mxCell>
        <mxCell id="xW0SYJLAr49xiK4sMMPl-20" value="" style="shape=process;whiteSpace=wrap;html=1;backgroundOutline=1;" vertex="1" parent="WIyWlLk6GJQsqaUBKTNV-1">
          <mxGeometry x="125.02" y="395.25" width="110" height="30" as="geometry" />
        </mxCell>
        <mxCell id="xW0SYJLAr49xiK4sMMPl-26" style="edgeStyle=orthogonalEdgeStyle;rounded=0;orthogonalLoop=1;jettySize=auto;html=1;exitX=0.5;exitY=1;exitDx=0;exitDy=0;entryX=0.5;entryY=0;entryDx=0;entryDy=0;" edge="1" parent="WIyWlLk6GJQsqaUBKTNV-1" source="xW0SYJLAr49xiK4sMMPl-22" target="xW0SYJLAr49xiK4sMMPl-20">
          <mxGeometry relative="1" as="geometry" />
        </mxCell>
        <mxCell id="xW0SYJLAr49xiK4sMMPl-22" value="" style="rounded=0;whiteSpace=wrap;html=1;" vertex="1" parent="WIyWlLk6GJQsqaUBKTNV-1">
          <mxGeometry x="100.01" y="345.25" width="159.99" height="35" as="geometry" />
        </mxCell>
        <mxCell id="xW0SYJLAr49xiK4sMMPl-23" value="" style="shape=image;verticalLabelPosition=bottom;labelBackgroundColor=default;verticalAlign=top;aspect=fixed;imageAspect=0;image=data:image/png,iVBORw0KGgoAAAANSUhEUgAAAMwAAAAjCAYAAADYMOWlAAAAAXNSR0IArs4c6QAAAARnQU1BAACxjwv8YQUAAAAJcEhZcwAADsMAAA7DAcdvqGQAAAcCSURBVHhe7Zw5bhRNFMfb3wEsGW5gOzAChMTmAEgIAHEBcwUIESKACwAHYJHIIUYyAkJABCwSBIgECJBD7IALzDe/cv/N41FVPe1lGI3eTyrVTHUtb63unm57ZjCkCYJgJP5r6yAIRiASJgh6EAkTBD2IhAmCHkTCBEEPpjJh7ty508zMzGyVT58+tUeCvWRxcXHL5hcuXGhbp4upTJjr1683q6ur7bemOXLkSPsp2Eu+fv3arKyspM9nz55N9bQxtZdks7OzqT5//nyqg/GwsLCQ6kOHDqV6Lzhx4kQ6i71+/bptGR9TmzBra2upPnbsWKqD8fDhw4dULy8vp3q3+f79e/P+/ftmbm6uOX36dNs6PqY2YV6+fJnqU6dOpToYD8+fP09nmf3797ctu8v8/HzDyykbGxtty3iZ2oR59+5dqpeWllId7D36ceXcuXOpnkaKCfP48eOtXz24ZlxfX/+rnV9COEVOGsiq0zY7krC/4uzbt69t/RP0uXLlyh99+S79gcBAd83jf4XDRl3r9IU5de1u/fHgwYMtWaklC9f3VkbGl5DO9JPcly5dqvr26dOnW/NTkAlZoO+PLH4uzYdMAn3s8dwvn9ZnuYJOHuzIr6qyLQVZcvMnePnSc/v27cGNGzcGP3/+TDXdXr16Nbh8+fLg/v37W31op21UNGY7pQ/IypjhDX/bsonah4k0+PjxY9v6m0ePHqXjKysrg2/fvqU2PtMmveH48eNp/OrqajrGd4/sxvidUvIHn5EZ7Hq04Rf6Iyft6JxDOmMr6czc9B9eWqU5PMzNGGqNsb7N2baEbCh5wa5vUV+Kh7G0o7+VGVmYi+J10TH8x5qAnzVPjs5IlCMwqJwDCj4flJOAnEdtwTAUOdmiwPEbQGkugcE57p2hcXLEbmH9QQAJ+QN5vLNpp3g0Bpt4+ZUU1ucgvbydFLC5dWqgB2P8+ujp16jFHLbwCW6TxSexTRY7piuuO7WTQl54ZSKKTRqSWQGFQTCM330EbTKsP84Y5ioFvtbyxxnnd8jdQOt5uyvhvQ58VrsH+ThmE0/kNgo2mtwaoGOlQCshfewZvIRirrR5WZBHPvXJAiW/da3RmTAMpvhdubQDTQIYCdlwqnYen/AWbyQMjF6l4LTUAisXiDuFeSk+YHXm8YGHDLT7sw460l5KavnX6iVdc7bUOrb/KGgcBR28XpauzUswBxskfXPxKd2V3PgLOaQz7SU5qglTOz1pd/KJ9K+RMXypBa8SQwXdaMP5XfrJRjaI+JyzGbLJkSR137NzzR+a18tbSqRa8IPms3aTnXK21Do1O5dgjDY56tIcirlaUnUlC0h3FdZEN3ToSsZqwmhiv2t07U4lvKB9yqjobKEdtSswoO8aFhzEWAWxzi7e8LTbJFHw90makj8kA/N7FDz4zKLd2s8F0oFig1NtuU1kpxso69j4yNmPdvSpobNETi+hxO9KjhzVKCmdAhWUfZw9LmQw7agydC25OU7ZLgoW0E7lQS4f0LKvDcoaJX8o+bRJiFoi1YJGges3GdooHsVD3w00h9b2Aa97tNrGJ9/X+sBOEqb64PLFixepPnDgQKrFjx8/Un348OFUTxKS+eDBg6nmOcxwV2qGiVP8bX3o6FTbZy2CZwE8J6jB/HDz5s3m7du3zdWrV9N3C3KdPHmy/bbJ0aNHU/3ly5dUd1Hyx5s3b1Kt+YTm9euCXhn6/PlzqgU2uHXrVnqGde3atbZ1E9rAPp/BprIrz0FGhTG5/qV30BRzpWc8PAO6d+9eM0yW5u7du23rpqw8W7Ey69ncr1+/Um3heRV+LNImzl/osit3ClQmk/Xs4GTsdrJ1t9GO6tXSDsiuRR92Yiuv3VG123Mdje707ToDaDyldP3NMexkoS/tpWttS80fpR2T7xqDDsipnRu/cebhrMBnoD99afeXcCC/aw76y/eldUp4nwBran3JJOhHf8Wc9aHOPlpf0I82f+az8mod1mZO2nK6i2LC1E6BTIhSHJ+UZAEFoA9MjKigwiC5oMYhurSiYLxS8Hu0bu0SNSeXHNcVXFDzh3xhg0VIb3Tz6yhIOK4+zO+DVVg7sqadr7ZODmzG2tbmzMn6uYClTX2tD5FV40slZzPGM4/68FmX8TXi3yztArxWAc+ePSu+dMhlwTCoUh/B6x5nzpxJf7tz8eLFtjWYZKb25ctxwT3OcJdrHj58WH1Dd7h7tp9+o/sH/e1OMPlEwvSEF/W4KeQmkpf5uNF88uRJ5wuHvMHLq+/+JU4S6V/8XUewTdKFWTAy9pqfMsoNO+h+RdfTfe5fgskhEqYnulEkcWq/puTgRlM3rqPeHAeTRdz0B0EP4h4mCHoQCRMEPYiECYIeRMIEQQ8iYYKgB5EwQTAyTfM/OiqlfOidg2cAAAAASUVORK5CYII=;" vertex="1" parent="WIyWlLk6GJQsqaUBKTNV-1">
          <mxGeometry x="104.23" y="349.75" width="151.54" height="26" as="geometry" />
        </mxCell>
        <mxCell id="xW0SYJLAr49xiK4sMMPl-25" value="" style="shape=image;verticalLabelPosition=bottom;labelBackgroundColor=default;verticalAlign=top;aspect=fixed;imageAspect=0;image=data:image/png,iVBORw0KGgoAAAANSUhEUgAAAGEAAAAiCAYAAABPyrdhAAAAAXNSR0IArs4c6QAAAARnQU1BAACxjwv8YQUAAAAJcEhZcwAADsMAAA7DAcdvqGQAAAPLSURBVGhD7ZrNLixBGIZrzh2IOyBWYuNnZ83OSnAL7FhyBbZWJPbcAJHYYYEVseYKiMQNzOnnS79OKV3dPT3D9KGepFPd9fvV935V1T2ZTjfDJYbKnzxNDJEkQgtIIrSAJEILSCK0gFIRrq6uXKfTeb8ODg7yksQgKRVhfn7ePT8/50/OTU5O5neJQVLrO4FVAOmT4muoPBOenp4snZ2dtTQxeCpFuL29tXRhYcHStrOzs2NnWQzOtbadbZUiPDw8WDo1NWVp21lZWXGbm5smxsvLS577j+XlZXd/f+/m5uYsbQWcCWVk2xAHQffu7i7P6XbX19ctT5dfJrIDvbu7u/venmtxcfFDXe7Jo2xkZORTP0dHR+9tKe+F7e1ta3NycpLnfIR8yrERW5vw+Pj4wRfYG+Yzxv7+vuXHqBRBA4SEA/vgTAZHgMvLS8vDEOqvrq7aM1BOXRxCGc8hODNsVxfGHh8ft7Y4JgTnU0Yd2VkX2mp+3GOjgoyU8cjHD5QVjS9KRWAAde6jKCsy3BfAj7BYX0LG+m2ASCW/VycJ+iMq6T8WkeRTjiDh+HWgDTYyZ+bn98Fzlf2lIsgBOF0wIUVwEbFBtRLos4hYO0Vqv2j7idlOpGJDmVgxFGBcYcTHgsunVAQcQAdMQMssjHAf6lCfeoBBtNX+SH6srQT3RaK9xh8E6k/2FUEZdXpZebKdefpovKogKhVBKvqXvypCZIwu2jMp2lRNStHkT4T7Mof1wleuhJhwerEIxQmJiqCoxiiQk8pUbRJFQvuqnK4oatKXD/3ihDLn9nsmYCdXiHaSopcXn6gIUpGOBAKQh4OK6EcEUP9AX2Wrrg7YQZ/MochmHE4ZdZraHG7BPghLWZWw0Y+1i4sLS6enpy2FzGBLz8/PLQ0ZGxuz9O3tzVKf4+Nj+4AqI9sqLKUeX+pbW1v23AT6WFpacnt7eza2bBOnp6duYmLC5ndzc2M/Vjbh+vra0pmZGUsFH4qvr68uE9iNjo7muRFyMT7B3kmxHyGh6pwB/kFKXcppq8ijDdEW24t9/DOl6WHMGIzFKiqKQG1PdeypA3MrslfbKasM2PKoW0ShCBgqZ4QwOXXuCyAwRgJycV/3oKMtbfrZhqpeArClrj11wA/YXLTdITZlbEv4KrYtteovL/yeA2dnZ9VL+AdR+QPed7GxseGyaHKHh4e/SgDD1sMQYHmydbCMta82fUP53xmaCHK8rqp36Z/M0LYjth7IxHDZW4pbW1uz599I+i9qC2jNwfybSSK0gCRCC0gitIAkwtBx7i9Lthv6U6LnPgAAAABJRU5ErkJggg==;" vertex="1" parent="WIyWlLk6GJQsqaUBKTNV-1">
          <mxGeometry x="144.35999999999999" y="397.75" width="71.32" height="25" as="geometry" />
        </mxCell>
        <mxCell id="xW0SYJLAr49xiK4sMMPl-39" style="edgeStyle=orthogonalEdgeStyle;rounded=0;orthogonalLoop=1;jettySize=auto;html=1;exitX=0.5;exitY=1;exitDx=0;exitDy=0;exitPerimeter=0;entryX=0.5;entryY=0;entryDx=0;entryDy=0;" edge="1" parent="WIyWlLk6GJQsqaUBKTNV-1" source="xW0SYJLAr49xiK4sMMPl-27" target="xW0SYJLAr49xiK4sMMPl-38">
          <mxGeometry relative="1" as="geometry" />
        </mxCell>
        <mxCell id="xW0SYJLAr49xiK4sMMPl-27" value="" style="strokeWidth=2;html=1;shape=mxgraph.flowchart.loop_limit;whiteSpace=wrap;" vertex="1" parent="WIyWlLk6GJQsqaUBKTNV-1">
          <mxGeometry x="231.37" y="270" width="360" height="48.5" as="geometry" />
        </mxCell>
        <mxCell id="xW0SYJLAr49xiK4sMMPl-28" value="" style="shape=image;verticalLabelPosition=bottom;labelBackgroundColor=default;verticalAlign=top;aspect=fixed;imageAspect=0;image=data:image/png,iVBORw0KGgoAAAANSUhEUgAAAdgAAAAgCAYAAACxb2lZAAAAAXNSR0IArs4c6QAAAARnQU1BAACxjwv8YQUAAAAJcEhZcwAADsMAAA7DAcdvqGQAAAvUSURBVHhe7Z3by01NHMeX9x8Q7lxIDkUpJYcSigvkWiGXih6uHEK4RFG4kUNRUkK5kJBDUUg5XFDkwuFCuHKIf+B912fsr3eeMWvtNWuv/Tz72c/vU2OevQ4zv/kdZmbNrL2N+TcnMwzDMAyjUf5p5YZhGIZhNIgNsIZhGIbRBWyANQzDMIwuYAOsYRiGYXQBG2D7hEuXLmXz5s3LTp8+3TpiGEYKxA4xRCwZRhPYW8QjnG/fvmXr16/P3r17l+3fvz9bu3Zt64xhGKkwuO7bty+bNm1aduHChWzChAmtM4aRTl88wb58+dINLGPGjHGJ4Dh8+HDrbP/C4Dp9+nSXP3nyxAZXwyjh0aNH7gm1rG8ghoglP7YMoy6VB1gck8ELJ+0lGFyXLl2avX//3qWvX79my5cvz3bt2pVt3ry5dVV9erXdsHLlSpffunXLZtoBvWy34Wbv3r1ON6NhEgofPnxwA+fixYuz58+ft44WQywRU6AYG6ncvHnT2bqX29HXscoScTvygYtl5H/HjRvXOtI7TJ061cmWD6ytI7/R8YsXL7aOpNPL7aZdyHbo0KHWEUP0st18hst+io0XL160jvQn9Al79uxxfrBmzRqXp+ic67i+kz5kuBkYGHBtOHXqVOtIb9FUrD58+NCVQ94NUvzGp9IT7JQpUxiIs+/fv7eO9AbMznhqzYPnrye4jRs3uvzq1asur8NQtVsvKKXAPhFs2LDB5cb/9Kq/9grs16Of2bNnt470J1euXHH527dvXYzNnz/ffa6KYkuxNhI5ceKEs/WmTZtaR3qLfo/VEb0He/36dZfPmTPH5T4LFy50+eXLl13ea7BsxRLd+PHjswcPHmRnzpxpnWkPy+JFEwvDMH7DoHLgwIHaMcJ9xBixRszVhX1cJtAk29MdXZQOsKyJszau1ImTdQMGKZg0aZLLfSZOnNj66/eAlEI3203Z7A3PnTvXfWZPiFlmytPE7du3XR6bWAjqYd8F+RnE1Qb/OC+D8bkIOgMmAdojIXGvX5aOU1YIX3vgXLjXp3tIZfX7sFohuZWQy99n9+UhhXbDX/zzsRT7mlM7PQw3yMEeI3aWfNiDY4oR0DlSrJ3o0r8mTJQfg6dD3zbUjb36AcWYYq4Ob968cXFO4u9OwBexEzr27YL+/Vjy7RF7+bGuranD9zXyOnv57WK1b8gfz0u5ceOGW3+ucOkgtH9RJ1VF1xetu7c7X0bddhfBPk4+qLrU6Z7OihUrStvFca5hf0PtwB7Uy54Me1Ncw3H242KwP8e+CPKqHvZxuIf9LKFjpBDt/4R7F5TNccoP985jqA2SHZCJ+0P5y+zm68JH+9noLKSqHuoQkyUVbCz5+FvH+Ez5OgbojmMktcWHe0j+3iz3qKzwHp2jfvm0b9teQ3GTonPazD0x36iK9ESS/9ZF+pYtKE9xFvYrslusvZKnqq3Bj2euJXWyn99kHys7xeRuArU7lbYta8LBuoWMU6TUdufLaKLddG4YhYDAOZsyvjqKKuXJibkHGXyknxB/UPE7hJhOOF9UDmVwPKxX91R1WLXXlwV4gSUsu8xuXB8Oihpcw7ZCih7qkKKDIrifcrCzD59jkyeuJYXIJkUdbth56xz6CTvXojqGG/lRis6bsnUTSBb82Ee28ydToPZyn0+qrUGDa3iuqI4qNKlblVVHjipQdp1YbbsH+/r1a5cvW7bM5aOFTtrN8kdsGXjRokXu81Dy6tUrl/NiCzIILclIRh++4vTjx4/s2LFjg/avYjrxz/vLkf6v4fjH4e7du1neMSe/oKWXVgT7a36boMxuXO/LxTLmunXrnA5iX3VK0cNwc/78+dZfv1m1apWzuY9snndoLvehfXl/MGirgmVGfDfvVP9aZjx79qw7t3v37kH3lNVhNAPvlfh7ubIdLwz5PH361OVhv5Nqa/qzkydPOpv655ABHyOWZ86c2TpanVExtjDKlsGMn8u6NTPoBOQqk63d+TLqtlvLh03Myoqg7Kqy6dpw5slnjodPgMxqffmZFfM0pBksx5nt+mjm68vD05OerkJd6FxV/KUkZu9h/T5V7aan09gTGNTRQwzpoE6qAnLRBq5HpvApxke+WUX3amfoH0K6Qwck9K2vxGDfmE5DuEdtTU1VfD8E/XBviu9JxtCHYwxFexRr6LjsntB/y2hn6zCmyPElZMDeYd9SlTp9rGyYmqrooRux2jaKUSIFVOlMhho5W1HAqPF1ZO+k3TgMzoPzIVtZp1cHOVkVx5QOQhRUYXCETkYbqI/Os6i+UB7KVOdLThIKzFS9MrhRjmTic4wqdms3uEIdPaRCuUW+mwJtUCyUlSmbF+lOtOtwab/qUkI3XF+3sx0K5KcpOldbubcXwK81MJH4O+brmkCHy8kh7WwNqksJX6NeYjk1jn2aHFtkp6ZiM4Sy68Rq6QDLwCCFphJ2UCmpKnK0WMOlcDrGVDpptw/lIBsy4MBNGV8dRbuOsqxzQCbOhYO/yk6RVUGKPAQLZRN8oPKAujhXVw+U7ftVWE4Vu1GGBqMyOeroIRXKrxO0RWhiU1RulQ5NHXPMZ4Rs0KTsQ4FsmiI3Pt1OH8MBfik/jsnmx2QRVWxNPd1of1N9rJCc3YpXyq7j76V7sFrD5+sJqezcuZNetVaqCj+RCPfu3XO5z6dPn1wee0W9HZ2024c9EfTAl6iXLFmSbd261ZXp7wPWQXsW2l8tomiPg30y9hZz5/5r36YOkydPdjnyHD161H2hP/xiu75ekAd+7b1o9o7QZ+7o7vPjx49dLtrZDRn8vabh2BPvJvj6tWvX3N9hTLAPnndqWT7IDtpP9sEvtSfND90b/8dYJ/uE+B0+SfL3TjsB3+W9gXxCFf0K0Z07d1w+Y8YMl4cMt62b6mN7ndIB9uPHjy7v1V98Wb169R8HC1+kOXfunMt37NjhckEnxPeuyr671Y12U++zZ8/cCzP8sMT41vfHQrmrkM8mXR6bWPjcv3/f5bNmzXK5+Pz5s8tjzq0B99evXy73ISj5HduQsWPHuhx5Dh48+GcABHVM+h9/tm3b5j5XgYlA7Pu1YXtEO7tt2bIl+iIH7QrrqaOHoQYfCv2n6GWTL1++uJwONQa6LnrhC93QZqHvnf/8+dPlPpTDJKZfUIwp5urQxPdg8VffBoCNmDDFYDJF3xibQKfYWr8nEJsYaMIa+qC+/17mB70+tjRG/sRYCI/EXMJSAo/0LMl2c8msDlrmyJ3lz3Jn2cscalPsnBiKdlMu9bCkx3JOlZdCfKos92m5MLxGOqNezrFPI31oqcXXJ7KhA47F5NQ9pFCv0iUptY2+HdUG7TfSNsknVFfMbloyI/fhvGzgU0cPqahtdaB+7kceyUeudoZLg2qPbE69qpuy0AHJbxfXqTxf1xzX9dIv5ymPY+22LoYD2Zm2sNwpfyqDa7ieWOsEysFnSFXqjYHsyCH7UI7iI7bP6stNPOAnkGprQF8c17YP11ImZcT8V77GfUVwH9c01ceqzk7KKIOyY21tR+kAiwHUkeMcvRg4gFzIh5ztZJUTyVliDHW7cTLqSYF7kK/I6Dgt52OdgwJe5ynLJ6bPMn3JuWNtkJxl9xeBHASebEEiqLGh3zmIIrtJhrIU6gBS9ZAKZdYJWqCt6MGXj4S+Yv6KzdVRoiO/Xl+/scT5EOqnLv8aOnrq6SXatQ0dFuEPAsMJOkW3sp9SmT9yPdcoXmSXOrbmXsqgLK4pi0FQvGlQj1EUq3UZkQNsP4IxcZBwljYS6ae2jEbqBq3RfYgpYosYM9LQ4N7poJlCrw6wY/gnv3lUwBem+T8h8xnWoD24kQp7H3kH4PZhYj+UYBhGOtpbzAdZt2/axIuAowV0x39UT/8a/gjMaGRE/286qRw/frxvBlcg8PmvuGDBggV/vQRhGEYaxBCxBMSWDa5p8AtfAwMDNri2GFVPsP0MHcORI0ey7du3980EwjCGEosho2lsgDUMwzCMLjCqlogNwzAMY6iwAdYwDMMwuoANsIZhGIbRBWyANQzDMIzGybL/ANzKCk/m5AbRAAAAAElFTkSuQmCC;" vertex="1" parent="WIyWlLk6GJQsqaUBKTNV-1">
          <mxGeometry x="240.37" y="287.5" width="339.25" height="23" as="geometry" />
        </mxCell>
        <mxCell id="xW0SYJLAr49xiK4sMMPl-46" style="edgeStyle=orthogonalEdgeStyle;rounded=0;orthogonalLoop=1;jettySize=auto;html=1;exitX=0.5;exitY=1;exitDx=0;exitDy=0;entryX=0.5;entryY=0;entryDx=0;entryDy=0;" edge="1" parent="WIyWlLk6GJQsqaUBKTNV-1" source="xW0SYJLAr49xiK4sMMPl-30" target="xW0SYJLAr49xiK4sMMPl-5">
          <mxGeometry relative="1" as="geometry">
            <Array as="points">
              <mxPoint x="185" y="475" />
              <mxPoint x="185" y="537" />
              <mxPoint x="289" y="537" />
            </Array>
          </mxGeometry>
        </mxCell>
        <mxCell id="xW0SYJLAr49xiK4sMMPl-30" value="" style="rounded=0;whiteSpace=wrap;html=1;" vertex="1" parent="WIyWlLk6GJQsqaUBKTNV-1">
          <mxGeometry x="115" y="445.25" width="130" height="30" as="geometry" />
        </mxCell>
        <mxCell id="xW0SYJLAr49xiK4sMMPl-31" value="" style="shape=image;verticalLabelPosition=bottom;labelBackgroundColor=default;verticalAlign=top;aspect=fixed;imageAspect=0;image=data:image/png,iVBORw0KGgoAAAANSUhEUgAAAKsAAAAhCAYAAACmw1unAAAAAXNSR0IArs4c6QAAAARnQU1BAACxjwv8YQUAAAAJcEhZcwAADsMAAA7DAcdvqGQAAAYHSURBVHhe7Zu7Sh5bFMfH8wJi0otomhAk4K0QKyGXIn0EHyDE0kJBe0EL7dQ8QVKmiblBAjEBSZWgoIWmSK2IvoBnfsvvr+vszDgzxpj5zrd/sFnf7NmXtdda+zIz2naSkkQiTcA/DRmJ1J4YrJGmIQZrpGmIwRppGlomWD9//py0tbWdpWfPnjXuRLxdxsbGGrn1o2WCdWRkJNnf329cJcmdO3cavyK8EBoYGLDffX19JutISx0Dbt682fh1GryRc2Sb4eFhk3WkpYL1x48fJrWKRM7Z3d01efv2bZN1pKWC9evXrybv379vMnIKk3hvb88msd996kZLBevm5qbJ3t5ek5FTdnZ2TA4ODpqsKxcGKzNuYmLi7EnxxYsXv+TfuHGj8Mmaeg8fPjxr59atW8na2prd80/p5IfQNvcWFhYaOaeoDok2yvDu3TuTfqvz4yN9//69ceecg4MD6x9nqhzj8WX5rTFik7AdbKC63K8TX758MXn37l2T4PUl5fn4It8CtsuKIUEs6R4py/5n8LcBWaRPzifptnCyvr5uvyn64MGDk2/fvplMtw3L7+josHtch6gNyjx//tzyqE958sTq6qrlZanz9OlTy5+fn2/knOLboZ8y5PWhfOnooR/6kC1A+j5+/NiugfuUffXqld3jOmRmZuaXeheBnaVblUS9KqgfjU8oHx+ElPUtdbmvGCKF/pLNfL0scoPVo45QjgH4zvIG6gfDIDxSWviBhFCf/NBgqhMGcR7oR/nQkQQQfYT6gw9UP+a8toR09nUAXcnP6utvgk4kjwKIiRlSxbceJin3aNsjexb5slSwqjFSuIIWOSZvRQwdndU+M1Lth+V1L+w3D+lDcAomAEYPDS7yJqJW1jzj5tXDWT09PY2reiDfYgch24ZBJar6VuTVkz2zdmdPqWBVJ+HqRuPkZzmAwSqYSBhFqxjlwwDBWLTlHUw59R0aQPfK4mc1fdNeuGJ6QsMzVupiA+Xn1c1yimyVFwB/CwUKvkFH+ShvAkNV3wpNjCxf+kUkj1LBSuN04gMJmIHkh0EspXyiDcpRJ4uwD79yyjgCAzPAvGDJgvqhThcZSAGnRH10pE5ohxCN39uF36GT6oAmsU9+lQ25jG89lMd3wvu5iFLBKqVCNNBQyayVpQgGSx1WHgWozksKZGD2c68oYDxaJakHMrg3Wkg4eaqA/tRVcGpVrdqWdKia1G8ZsAl1sJHszjU6Z3EZ33q0gwp8ULatwvesepWQGsCkR6+C7t27Z/J36OrqMrm1tZUsLi4mQ0NDyZMnTyxP6DVIGtiVPpdub2+b1McA6qZGshfh+qp1lfBinfbfvn1r1+icrsiVP/G+efMGr1ZO1CsDYz88PEzSALXXVuitP2TRB5SrRu9yed3I60D6npqasrwiCoN1Y2PDZH9/v0lB4DBQnBJ+9ejs7DR5dHRk0qP3kSHt7e0mP3z4kMzNzSXpbLNrGB0dNTk+Pm6fBScnJ+26LJ8+fTLp/0gj3RVMvn//3mRId3e3yePjY5Me3hXOzs42rrJJVxCTlMPxVXW+DhSQLAzi0aNHJl++fGky5DK+9ehd7uvXr5Pp6elkaWnJrkuRzsQL8Q8mHm1t2krZsikL2k5I2vooz3JPXtZDhrZmUrgtcK17Fx3888h6eNPRQFsmffh+pQ91tSVShzGSV6SH17luD1WC8zf6hfaW7/AjusuvcBnferyfyzxUeQqDlWCkYTnMo3MmSqIsAxFyrBSjHZTzZTw+OEI4E3NPZ9gq0J90CJGz0C10GGB4BTqJ32V1oC51qjrkOtHY/CQGPfSQ8HHos6q+9cgfWX4uIv536x9CZzPOj3X+45DrhmPRyspK8vHjx/983i2FhWzkSmE1YlUqOiq0Gtohw7dHZYnBegVwhGAb5Kik7THcWlsRbMB2z9aPjbBL1nGrLDFYrwB/fvudleP/Bud7bxd2nN+hpf6e9U+Rrqgm06BN0q2/1v90d538/PnTZLq6JukDZ7K8vGzXlyU+YEWahriyRpqGGKyRpiEGa6RpiMEaaRpisEaahCT5F/viV1UDrefkAAAAAElFTkSuQmCC;" vertex="1" parent="WIyWlLk6GJQsqaUBKTNV-1">
          <mxGeometry x="120.41" y="448.75" width="119.18" height="23" as="geometry" />
        </mxCell>
        <mxCell id="xW0SYJLAr49xiK4sMMPl-45" style="edgeStyle=orthogonalEdgeStyle;rounded=0;orthogonalLoop=1;jettySize=auto;html=1;exitX=0.5;exitY=0;exitDx=0;exitDy=0;exitPerimeter=0;entryX=0.75;entryY=0;entryDx=0;entryDy=0;" edge="1" parent="WIyWlLk6GJQsqaUBKTNV-1" source="xW0SYJLAr49xiK4sMMPl-33" target="xW0SYJLAr49xiK4sMMPl-5">
          <mxGeometry relative="1" as="geometry" />
        </mxCell>
        <mxCell id="xW0SYJLAr49xiK4sMMPl-33" value="" style="strokeWidth=2;html=1;shape=mxgraph.flowchart.loop_limit;whiteSpace=wrap;direction=west;" vertex="1" parent="WIyWlLk6GJQsqaUBKTNV-1">
          <mxGeometry x="230" y="500" width="360" height="20" as="geometry" />
        </mxCell>
        <mxCell id="xW0SYJLAr49xiK4sMMPl-34" value="" style="shape=image;verticalLabelPosition=bottom;labelBackgroundColor=default;verticalAlign=top;aspect=fixed;imageAspect=0;image=data:image/png,iVBORw0KGgoAAAANSUhEUgAAATMAAAAiCAYAAAAzpT7UAAAAAXNSR0IArs4c6QAAAARnQU1BAACxjwv8YQUAAAAJcEhZcwAADsMAAA7DAcdvqGQAAAr7SURBVHhe7ZzZq41fGMff8/sDZLpVMhQh4hjCDWUIKUkHV+7EhSshciEppJQLUyk3puJGkaEoU+YIuUESro4M/4Df+3ns7/49v3XW++7Bln32WZ96z9p7ze8anvWsZ619un7mZIlEItHP+afiJhKJRL8mCbNEItERJGGWSCQ6giTMEolER5CEWSKR6AiSMEskEh1BEmZ/mTt37mRdXV3V59ixY5WQRKJ/M2bMmOq4Xrx4ccX3zzFghNnZs2ezoUOHmvBoJ+bOnZv19vZWvmXZhAkTKp8Sif7Nmzdvsp6eHvs8f/58cxvl3bt32Y4dO7Lp06ebULx8+XIlpC8dL8wQXjTEmjVrsq9fv1Z824thw4ZVPv0SbolEpzB69GhzJ06caG4j7N+/39Izbw8ePJhxv3/JkiWV0L50rDBDoqParlu3rtqgrUTbw1ZoetQVuru7zU0kOoUnT56YO3PmTHPr4cuXLzZ39+7dmz179iw7fPhwXYt8xwqzAwcOZCtWrDBVly1mO/Pw4UNzFy5caG4i0SlcvXrVlAm/+6jFzp07Ld3NmzezyZMnV3xr07HCDGm+fv36yrf25sWLF+ZOmjTJ3ESiE3j+/Lm5jSzS2MSOHDmSbdiwoSFBBqXCjO3Pxo0bqycS0nC8P0b1dAL3e1y7ds3c8ePHmwu+3Xk0MDyo49gVZBzlQT0P4xKHfiKcfEP8qVPqy/ZH/a5+U5/ij7Fcfc1YwA+Yu4qPGxtPQvNb+fCsXr26ag6JgRCiPMVnTGosNSKUNm3aZO7mzZvNbQj+a0aM3t7en93d3T9v375tn4m6aNGin/ke1ty3b9+a/5AhQyyM7/VC/Gaeffv2VXJoHOXB+7QC8mlVfqpbiPzPnDlT8fkP+oG2Vx/B0aNHLX5PT499B9Lmq5x9Ji7hly5dsu9C/ctDvon2hv6lr0F9Sh/Sz5qvzFH8iYe/4sfGiIfxQrjmOJAnYy3fLlreIeRPGlylYa7ix1PvmCIe8Xkn8iE/ylQ+Pv8YhcLMo8FOIbykfyE1Wism9Z9EDdKqepJPK/JTPrSjZ/v27TaAYvl7Qeb7oigvoYFM3iFl6RLtC2OAsUDf+YkuYUKYBBmUjRGFheMKJLDChVXlEO6RzOCpF19n6qBFl7xUPmFh3URdNrPXr1+b+/jxY7NFeWOejNd+i5Son3v37pk7bdo0cwEVn60nBtDYKc7WrVurx9W+L169emVu0Z0e3WHTCZPQloOT3xBtOdi+JFoPWzHat2wLVwZzkrHA9mzUqFEV3yx7//69uTNmzPif7fjHjx/mDh482FyP+n/Xrl19DPYjR44098OHD+YCdWYs5gIm2717d8X3F9+/fzc3F5rm1sPTp0/N5cDgypUr1WsY1AW5Q16864kTJ8y/DxWhVkqR9GUlwB9VsN2hnjwxTacMVjClbeSJrXwxUPeJzyqExkW62MoopIorf/qAtFq58C9KC6qfh7SUGUJZ9G2szShT9R4I0D6xNmoFtC/tTHs3gtekQvAjLMwTrRx/r62BxlXRXNb4QhaIIrkAGh8+fi0014rSqLyiuVWXZnbjxg1z165da64YCFcKWCHydurz5APJwnFj4aSrBxn/ly5dmk2ZMsWOpGnPoqNswuViaM0HbXbo0CFbHakL5RalhXwgmCtNAJfTI7Q8D4bjefPmZSdPnoxqhy9fvjR33Lhx5rYbGMhljC67NV4vaEAYtf8EtO+FCxesvRvR0KTVr1q1ylxB31FfNJzQ+K7xNmvWLHOFxlXRXH706JG5/vKr5MKyZcvM9dy9e9fcZi7LFjF79uzKpwLyiVcTosWiSquIGajLUH6NPo1I+RDlwWrWCrQq/k5+Wg2xA4DyLNN0tXo1W65WZqVnVY2tdEX+/Qm9a5mm2k7Q5jEtp4iisSCtKDTy0w74a7x5NJdjc0w7MB7flvKLGeUZw0VhRai/iua53qtoXNbUzGRPyTMw1yMpv2DBAnPrJS+3qWfLli2VHDoD2SK1GrJCs5rmA6BpG0otdJeNVZ1fL3Bkjz0iBP+YDa0/gX0FzbVMU20n0HDQknWdohbaGYWas7RmND3PgwcPzI1pX9++fTM3pv2cP3/e3FzQRtvS2+oAOyBjmLEchpWhsSmNL0TvVZRnTWF2//59c72BGmhwBgsV7i+Dpd24deuWuVOnTjUX8hXS3OvXr5sboo6UIdeDAKplqNdBDcZWhNW2bdv6DA6EHH2L8ThEP+PiYStXBIug7h2pTroDxcPWjzGE8Zs4+MV+GqY4hBOPO1KxbWMYj7Jpj3q2hv5ultJqMfF3pzy+HcKHcj3U198FLOoj/eRHQqcM2lfCOkTCIPynBRIGfrwJzW8dIgnalZ8VYcYI737hB37hpV5SgOirRkApIk+2vLHF/Pjx4+aG5q4qucZTijdQe6R6akuEQTFUa9sFXUngiV1LaAZtCZvd7oGMtD4PbT2lSqNye7Vb5ZJWKjxpaHv8QoNvDNIrjxhqryKk7pe9O/WhfrwHD9+JzzaFbQ5lez/yC7dYpGd8+XfVVkTfgfTE8fHIi3i1TCC0LfVROurDdw/5hlsb2oi6KR3tTrrwHfiOv+pBedSrqJ8IK9pmedRHsfGMP0+IyiYN9Vb7A9+pp38nwnh3/GP1VRurvsSnnXDxJy19Q3g97wS650Zalam64h+2r6emMOPlyEQv6NHL8LJU1u+n/zYaXNSv6GnU1udRh2kwNIomME+IJixtHxsECBM6W+n5zOCuFw3QWJ8CZcbqJTSR6ulvBjdx/WSgbD9B1Bbhu5KWeL4ctbt/XwkMH0/vUPSOgklCO5e9C3mHQoPvGj8aa+FE08T0dZVfUb1i7RBDcy8cw9QFf/o4hDI1nwkPFRTSSmjwEJdyiupKm6l/eX9fb/kXjeEy6GNfDx4veIuoKcwScX5XmP0tpFWVCXIJgiIYWLHJEoN8/CRnYuDnB3hM09OkDIWI2l0CQvnFhA0TqRYSROFkFKpHOPGF0oeCDChfdSAe+RfFFZTV6ORP/CIJswFE2cTzSPMqgjxC4RFDgscLAgku6iLIKyxPGky4WCiu0hfFQ4ggdOsBDYM2IZ9QSJdpoWXtKSGrR/UpW0SAuEmYNUdd98wS/RcMzhhxMUpzuoVRP3Z66ZHhWIZcjwzPc+bMqfgUo3tQ/n9Z6f6Rv/907ty5PqflukHu4T047SOu0vsb6UKnaeFpXogM/Rxg0Sa5oLH7Wf4ggl9h5AKuzyEX7UD+/ABb7Ul+Svv582dzc8GElK7+KyoOYHiPGPJv5d2sgUQSZh2MhNHw4cPtP+3m2kF26tQp8yuDo/5c46heHfF8+vTJ3EGDBtnkDE/uPJyqUaYXBFznCQUXgofTNAQLwgF03ef06dPmEoawAASE0MTXKRyCTIJwxIgRVj9OOWNwtYH/ewcIEk6XeW//0zzqRv0JV91igowTS07hlFZtqJ/okJ66rVy5Mvv48aP5hegUs5F/ZJhw/FLQEp2ItnRscRrdurB1wogbwvaJ/Nhe1cqTsv0WjK0afmE6bfEoj/wF9acswrSd8+FC6YmrLS3bRfzYlhYZ99n2kS/xePjut79AXQmjbgpTncKHvDy+/rjUs6guQDhPojm6+JM3diLxP9Akxo4dm128eLHPpcxE62F7unz5ctvmNnLRNPEfaZuZiMLWCnsRF2tjl1kTrYP2pZ1p7yTImidpZolSsFVhV8L+s2fPnopvolVgR8MGx+36JMh+jyTMEolER5C2mYlEogPIsn8BokH1EUtfFhoAAAAASUVORK5CYII=;" vertex="1" parent="WIyWlLk6GJQsqaUBKTNV-1">
          <mxGeometry x="305" y="345.25" width="207.68" height="23" as="geometry" />
        </mxCell>
        <mxCell id="xW0SYJLAr49xiK4sMMPl-43" style="edgeStyle=orthogonalEdgeStyle;rounded=0;orthogonalLoop=1;jettySize=auto;html=1;exitX=0.5;exitY=1;exitDx=0;exitDy=0;entryX=0.5;entryY=0;entryDx=0;entryDy=0;" edge="1" parent="WIyWlLk6GJQsqaUBKTNV-1" source="xW0SYJLAr49xiK4sMMPl-35" target="xW0SYJLAr49xiK4sMMPl-42">
          <mxGeometry relative="1" as="geometry" />
        </mxCell>
        <mxCell id="xW0SYJLAr49xiK4sMMPl-35" value="" style="shape=process;whiteSpace=wrap;html=1;backgroundOutline=1;" vertex="1" parent="WIyWlLk6GJQsqaUBKTNV-1">
          <mxGeometry x="355" y="396.5" width="110" height="30" as="geometry" />
        </mxCell>
        <mxCell id="xW0SYJLAr49xiK4sMMPl-36" value="" style="shape=image;verticalLabelPosition=bottom;labelBackgroundColor=default;verticalAlign=top;aspect=fixed;imageAspect=0;image=data:image/png,iVBORw0KGgoAAAANSUhEUgAAAGEAAAAiCAYAAABPyrdhAAAAAXNSR0IArs4c6QAAAARnQU1BAACxjwv8YQUAAAAJcEhZcwAADsMAAA7DAcdvqGQAAAPLSURBVGhD7ZrNLixBGIZrzh2IOyBWYuNnZ83OSnAL7FhyBbZWJPbcAJHYYYEVseYKiMQNzOnnS79OKV3dPT3D9KGepFPd9fvV935V1T2ZTjfDJYbKnzxNDJEkQgtIIrSAJEILSCK0gFIRrq6uXKfTeb8ODg7yksQgKRVhfn7ePT8/50/OTU5O5neJQVLrO4FVAOmT4muoPBOenp4snZ2dtTQxeCpFuL29tXRhYcHStrOzs2NnWQzOtbadbZUiPDw8WDo1NWVp21lZWXGbm5smxsvLS577j+XlZXd/f+/m5uYsbQWcCWVk2xAHQffu7i7P6XbX19ctT5dfJrIDvbu7u/venmtxcfFDXe7Jo2xkZORTP0dHR+9tKe+F7e1ta3NycpLnfIR8yrERW5vw+Pj4wRfYG+Yzxv7+vuXHqBRBA4SEA/vgTAZHgMvLS8vDEOqvrq7aM1BOXRxCGc8hODNsVxfGHh8ft7Y4JgTnU0Yd2VkX2mp+3GOjgoyU8cjHD5QVjS9KRWAAde6jKCsy3BfAj7BYX0LG+m2ASCW/VycJ+iMq6T8WkeRTjiDh+HWgDTYyZ+bn98Fzlf2lIsgBOF0wIUVwEbFBtRLos4hYO0Vqv2j7idlOpGJDmVgxFGBcYcTHgsunVAQcQAdMQMssjHAf6lCfeoBBtNX+SH6srQT3RaK9xh8E6k/2FUEZdXpZebKdefpovKogKhVBKvqXvypCZIwu2jMp2lRNStHkT4T7Mof1wleuhJhwerEIxQmJiqCoxiiQk8pUbRJFQvuqnK4oatKXD/3ihDLn9nsmYCdXiHaSopcXn6gIUpGOBAKQh4OK6EcEUP9AX2Wrrg7YQZ/MochmHE4ZdZraHG7BPghLWZWw0Y+1i4sLS6enpy2FzGBLz8/PLQ0ZGxuz9O3tzVKf4+Nj+4AqI9sqLKUeX+pbW1v23AT6WFpacnt7eza2bBOnp6duYmLC5ndzc2M/Vjbh+vra0pmZGUsFH4qvr68uE9iNjo7muRFyMT7B3kmxHyGh6pwB/kFKXcppq8ijDdEW24t9/DOl6WHMGIzFKiqKQG1PdeypA3MrslfbKasM2PKoW0ShCBgqZ4QwOXXuCyAwRgJycV/3oKMtbfrZhqpeArClrj11wA/YXLTdITZlbEv4KrYtteovL/yeA2dnZ9VL+AdR+QPed7GxseGyaHKHh4e/SgDD1sMQYHmydbCMta82fUP53xmaCHK8rqp36Z/M0LYjth7IxHDZW4pbW1uz599I+i9qC2jNwfybSSK0gCRCC0gitIAkwtBx7i9Lthv6U6LnPgAAAABJRU5ErkJggg==;" vertex="1" parent="WIyWlLk6GJQsqaUBKTNV-1">
          <mxGeometry x="374.34000000000003" y="399" width="71.32" height="25" as="geometry" />
        </mxCell>
        <mxCell id="xW0SYJLAr49xiK4sMMPl-41" value="" style="shape=image;verticalLabelPosition=bottom;labelBackgroundColor=default;verticalAlign=top;aspect=fixed;imageAspect=0;image=data:image/png,iVBORw0KGgoAAAANSUhEUgAAAOUAAAAhCAYAAAAmsGy0AAAAAXNSR0IArs4c6QAAAARnQU1BAACxjwv8YQUAAAAJcEhZcwAADsMAAA7DAcdvqGQAAAbNSURBVHhe7ZzNLmRNGMeP9wIkuAMfySRm52OBPYnEdixtx9qKpVgQF2CugLUgViNhdjOEhdhgIZZcQ79+9Z4/pd6q6j5Nd5+eU7+kUq2+n6rno85Jt57aC1kikSgN/+R5IpEoCckoE4mSkYwykSgZlTDKra2trKen5zVdXV3lNYmq0E06UJkXPUdHR9n8/Lz5nN5tVZNu0YHKXF97e3tNPjs7a/JE9egWHaiMUT4+Ppp8bGzM5Inq0S06UBmjPD09Nfn09LTJE9WjW3SgMkb5+/dvk3/58sXkierRLToQNMq9vb1seHjYvKmamJjInp+f/1c+NzeX3d/fm3If1C0vL7+2J/G3xrLfiFHusri4aOp+/fqVl2Tms/qQGoH5/vz5k/X19WWDg4N5afZuXf39/Xnpe+rJALzJYy80jvtmjz2rN0+itbRaB9Bl+qvOxe7748ePvDQAb19dNjc3a6urq7WnpyeT0+zs7Kz2/fv32s7Ozmsbyinzsbu7a+q/fftWu7u7M2V8pkxjgMpeHr7zkjeGhoZe57ahf6iPD/r72qv85aBql5eXeekbjcowPj5u+h8eHpo6/nbRPtI/8Yb0qJlUhFbqAG1kB5w9deiCDbZEOck3j01dyaRMCMPkIiQkSBDXYHUA5EKK7I7Dwikn2fOC+rCGRvDNC2wgSZttU0QGGw6Xeg7BRv0aXXPic2mXDihgYDculPvsxaXuM+X5+bnJCflcJ8X19bXJ3TdZhHTCN9eE9fX1vPQ/Li4uTD41NWVy0Gvq29tbkwtCPGPAw8ODycXBwYF5rT0zM5OXxPn586fJv379anLWyJX8JRJnx8fH764zUFQGm8nJSZPf3NyYXNCP+Xxr1vVobW0tL+keOCfWHnuMKQPt0oHR0VGTy26EHmmWlpZMHiU3ziA0IbmeBO9BuRvF5CnkRYh4tMFDUO56EDusC+bSGPZYoLoiEceOXkRZrsWu97MpKoNNbM3ulQYYm/X45NEtxY26zaB9jq29WVg7MtS7lnWSduoA9SQb5iIiN0LUKNlsBveFXISizjVWLVqJdpQhnNtWqK1AAPqwEZTbz2F8LvJcpjHc5DMQ0YwMQntmH7jkcUFBUJaQg6EPc38GWpfrRD8L9hlZ6u1PJ2i3Dqiv2pHzd+icXaJGyQIYTN5CSEifwlBOKgLj0AcllfIwB/BZCs0mcvBFIoc8ngxZMsW8JPWkZlBE0ppjBxIy1m4FeWL76kPn0UxqlHbrgG44OvOi5xydFSHswYWE9IXwZoSRZ2EeQrztBCinTFEl5t18sCGMwZpBRhKLQNSTmkVOBpAtdNVBnlZFrk7A2SB3EafZDtqtA5wpfdFjdLroDSI6K4MxuLvJ8gQ+hbKjngub4zMqGT8KTH+7rwyWvMi1VWg9tmPByClTNHZpRgYbycM+hSI766GN77Ds6OE6RB+MrzlJzGnvlcrZQ5tYlHLXRVvtS8iZsA7qizrOVtNuHdBNkjNgHDvINELQKDWw7+FUnoeD4fA4bAmsg6aNBEIAxmGRPiFjSiijRDhf3xhSEpKNIj3z0oZ12fM2I4ONLU/o8LSGEHJ8jcAekbQu5reNUvtAuQ1tbHnk4W2Dow65Sdoj5sIwffjm6SSS3d3LVuuA5qR9UYKnrgNiUS4YrKKobZACgeRpSAgR8yzaAN81Tw4g5NFiMKfWaMOGUkYdm+ZbW1EZbDRv6NoKkjkE8/kOVEph40ZGFzlYd/2MpYjoM0jw7T9l7I0P2iJbWeiUDjAm51Lk2ioac8WJQnAgpJg3rWeUHKjPqBnXNUAZFArkUxpFhdB6QgaJQlEux4zzlZG6bQV1ZTLKTiBHENqjeiSj/GRQWgyqXmSPXV9DkS0GfeT5XWMORV0IGSSoTokxkM+9GdnQrspGyTlw/nJkzZCM8oOggBgBUQXlRyljSitoQ1uf8daLbDbuNVKRzCYUdV2DZD7aCkVzV56QfPSnfRFn8jegs2If2T/3qlyUZJQfRIao5Is4IThAX3sMiLEAIws9lyiiagzaEc1spZChYGC0l3HSx10vdXZE1fg4CWB8tfE5DF3bfHV/K9ojpdDeFCEZ5QfhEDgMjNMX9WJgcD6vinJjsKFnRIGR6MpKog9jukqhNqqjn/q4yX1exZgZlzpkjV1NGZ9UJeSIOKvY3hQh/Yf0DsKXnkdGRrL9/f2Gv1xfVvid68LCgvnNovvl7kQxKvOfB8rIwMBAdnJyYn45YP+Qu9tg7ciALMkgP06KlCWAnz1tb2+bnwltbGzkpd0BP93iZ0krKyvJID+JZJSJRMlI19dEomQko0wkSkYyykSiVGTZv81knzUBQk7BAAAAAElFTkSuQmCC;" vertex="1" parent="WIyWlLk6GJQsqaUBKTNV-1">
          <mxGeometry x="331.57" y="453.5" width="159.61" height="23" as="geometry" />
        </mxCell>
      </root>
    </mxGraphModel>
  </diagram>
</mxfile>
